<?xml version="1.0" encoding="UTF-8"?>
<svg width="553px" height="82px" viewBox="0 0 553 82" version="1.1" xmlns="http://www.w3.org/2000/svg" xmlns:xlink="http://www.w3.org/1999/xlink">
    <title>7 copy 3 -IBM plex sans Copy</title>
    <defs>
        <linearGradient x1="86.6983366%" y1="104.251614%" x2="15.3615869%" y2="4.52932337%" id="linearGradient-1">
            <stop stop-color="#8575C3" offset="0%"></stop>
            <stop stop-color="#CFA0A0" offset="100%"></stop>
        </linearGradient
    </defs>
    <g id="Page-3" stroke="none" stroke-width="1" fill="none" fill-rule="evenodd">
        <g id="1" transform="translate(-423.000000, -537.000000)">
            <g id="7-copy-3--IBM-plex-sans..-Copy" transform="translate(417.000000, 537.000000)">
                <g id="SURVEY2CONNECT" transform="translate(100.617000, 26.181000)" fill-rule="nonzero">
                    <path d="M14.602,36.652 C16.3333333,36.652 18.032,36.4478333 19.698,36.0395 C21.364,35.6311667 22.8503333,34.986 24.157,34.104 C25.4636667,33.222 26.5171667,32.0868333 27.3175,30.6985 C28.1178333,29.3101667 28.518,27.636 28.518,25.676 C28.518,24.7613333 28.3791667,23.8466667 28.1015,22.932 C27.8238333,22.0173333 27.3991667,21.1598333 26.8275,20.3595 C26.2558333,19.5591667 25.5453333,18.8486667 24.696,18.228 C23.8466667,17.6073333 22.8503333,17.1173333 21.707,16.758 C21.2496667,16.6273333 20.4901667,16.4231667 19.4285,16.1455 C18.3668333,15.8678333 17.2806667,15.582 16.17,15.288 C15.0593333,14.994 14.0548333,14.7245 13.1565,14.4795 C12.2581667,14.2345 11.7436667,14.0956667 11.613,14.063 C10.3716667,13.7036667 9.36716667,13.1728333 8.5995,12.4705 C7.83183333,11.7681667 7.448,10.7963333 7.448,9.555 C7.448,8.673 7.65216667,7.938 8.0605,7.35 C8.46883333,6.762 8.98333333,6.2965 9.604,5.9535 C10.2246667,5.6105 10.9106667,5.3655 11.662,5.2185 C12.4133333,5.0715 13.1483333,4.998 13.867,4.998 C15.9903333,4.998 17.738,5.4635 19.11,6.3945 C20.482,7.3255 21.2496667,8.918 21.413,11.172 L21.413,11.172 L27.538,11.172 C27.538,9.34266667 27.1786667,7.73383333 26.46,6.3455 C25.7413333,4.95716667 24.7695,3.78933333 23.5445,2.842 C22.3195,1.89466667 20.8985,1.18416667 19.2815,0.7105 C17.6645,0.236833333 15.9413333,2.13162821e-14 14.112,2.13162821e-14 C12.544,2.13162821e-14 10.9923333,0.204166667 9.457,0.6125 C7.92166667,1.02083333 6.54966667,1.64966667 5.341,2.499 C4.13233333,3.34833333 3.1605,4.41816667 2.4255,5.7085 C1.6905,6.99883333 1.323,8.526 1.323,10.29 C1.323,11.2046667 1.4455,12.103 1.6905,12.985 C1.9355,13.867 2.352,14.7 2.94,15.484 C3.528,16.268 4.32016667,16.9785 5.3165,17.6155 C6.31283333,18.2525 7.56233333,18.767 9.065,19.159 C11.4823333,19.8123333 13.5158333,20.3431667 15.1655,20.7515 C16.8151667,21.1598333 18.2606667,21.5926667 19.502,22.05 C20.2206667,22.3113333 20.8821667,22.7605 21.4865,23.3975 C22.0908333,24.0345 22.393,25.0226667 22.393,26.362 C22.393,27.0153333 22.2623333,27.6605 22.001,28.2975 C21.7396667,28.9345 21.315,29.498 20.727,29.988 C20.139,30.478 19.3713333,30.8781667 18.424,31.1885 C17.4766667,31.4988333 16.3333333,31.654 14.994,31.654 C13.7526667,31.654 12.6011667,31.5151667 11.5395,31.2375 C10.4778333,30.9598333 9.53866667,30.5188333 8.722,29.9145 C7.90533333,29.3101667 7.26833333,28.5343333 6.811,27.587 C6.35366667,26.6396667 6.125,25.4963333 6.125,24.157 L6.125,24.157 L-2.84217094e-14,24.157 C0.0326666667,26.313 0.441,28.1831667 1.225,29.7675 C2.009,31.3518333 3.05433333,32.6503333 4.361,33.663 C5.66766667,34.6756667 7.203,35.427 8.967,35.917 C10.731,36.407 12.6093333,36.652 14.602,36.652 Z M47.824,36.652 C49.98,36.652 51.94,36.3743333 53.704,35.819 C55.468,35.2636667 56.9788333,34.4225 58.2365,33.2955 C59.4941667,32.1685 60.466,30.772 61.152,29.106 C61.838,27.44 62.181,25.48 62.181,23.226 L62.181,23.226 L62.181,0.833 L56.056,0.833 L56.056,21.217 C56.056,22.393 55.9988333,23.5853333 55.8845,24.794 C55.7701667,26.0026667 55.4435,27.0888333 54.9045,28.0525 C54.3655,29.0161667 53.5488333,29.8083333 52.4545,30.429 C51.3601667,31.0496667 49.8166667,31.36 47.824,31.36 C45.8313333,31.36 44.2878333,31.0496667 43.1935,30.429 C42.0991667,29.8083333 41.2825,29.0161667 40.7435,28.0525 C40.2045,27.0888333 39.8778333,26.0026667 39.7635,24.794 C39.6491667,23.5853333 39.592,22.393 39.592,21.217 L39.592,21.217 L39.592,0.833 L33.467,0.833 L33.467,23.226 C33.467,25.48 33.81,27.44 34.496,29.106 C35.182,30.772 36.1538333,32.1685 37.4115,33.2955 C38.6691667,34.4225 40.18,35.2636667 41.944,35.819 C43.708,36.3743333 45.668,36.652 47.824,36.652 Z M75.362,35.819 L75.362,21.413 L84.378,21.413 C85.7826667,21.413 86.9341667,21.5926667 87.8325,21.952 C88.7308333,22.3113333 89.4413333,22.8748333 89.964,23.6425 C90.4866667,24.4101667 90.846,25.3738333 91.042,26.5335 C91.238,27.6931667 91.336,29.0733333 91.336,30.674 C91.336,31.5233333 91.3768333,32.4053333 91.4585,33.32 C91.5401667,34.2346667 91.8096667,35.0676667 92.267,35.819 L92.267,35.819 L98.833,35.819 C98.1796667,35.1003333 97.6978333,33.8998333 97.3875,32.2175 C97.0771667,30.5351667 96.922,28.665 96.922,26.607 C96.922,25.235 96.7505,24.0916667 96.4075,23.177 C96.0645,22.2623333 95.6316667,21.5191667 95.109,20.9475 C94.5863333,20.3758333 94.0228333,19.9593333 93.4185,19.698 C92.8141667,19.4366667 92.2506667,19.2733333 91.728,19.208 L91.728,19.208 L91.728,19.11 C92.022,19.012 92.4875,18.816 93.1245,18.522 C93.7615,18.228 94.4066667,17.7461667 95.06,17.0765 C95.7133333,16.4068333 96.285,15.5248333 96.775,14.4305 C97.265,13.3361667 97.51,11.956 97.51,10.29 C97.51,7.31733333 96.5463333,4.998 94.619,3.332 C92.6916667,1.666 89.8006667,0.833 85.946,0.833 L85.946,0.833 L69.237,0.833 L69.237,35.819 L75.362,35.819 Z M85.407,16.758 L75.362,16.758 L75.362,5.831 L85.309,5.831 C86.093,5.831 86.8525,5.89633333 87.5875,6.027 C88.3225,6.15766667 88.9758333,6.419 89.5475,6.811 C90.1191667,7.203 90.5683333,7.75016667 90.895,8.4525 C91.2216667,9.15483333 91.385,10.0613333 91.385,11.172 C91.385,13.034 90.8786667,14.4305 89.866,15.3615 C88.8533333,16.2925 87.367,16.758 85.407,16.758 L85.407,16.758 Z M118.237,35.819 L130.193,0.833 L123.97,0.833 L115.003,28.518 L114.905,28.518 L106.134,0.833 L99.764,0.833 L111.426,35.819 L118.237,35.819 Z M159.201,35.819 L159.201,30.527 L139.797,30.527 L139.797,20.286 L157.437,20.286 L157.437,15.288 L139.797,15.288 L139.797,6.125 L158.858,6.125 L158.858,0.833 L133.672,0.833 L133.672,35.819 L159.201,35.819 Z M179.781,35.819 L179.781,22.099 L192.864,0.833 L186.004,0.833 L176.89,16.513 L167.629,0.833 L160.524,0.833 L173.656,22.099 L173.656,35.819 L179.781,35.819 Z" id="SURVEY" fill="#2A2A2A"></path>
                    <path d="M217.903,35.819 L217.903,30.821 L201.194,30.821 C201.422667,30.0696667 201.847333,29.3591667 202.468,28.6895 C203.088667,28.0198333 203.8155,27.3746667 204.6485,26.754 C205.4815,26.1333333 206.388,25.5126667 207.368,24.892 C208.348,24.2713333 209.328,23.618 210.308,22.932 C211.288,22.246 212.235333,21.511 213.15,20.727 C214.064667,19.943 214.881333,19.0855 215.6,18.1545 C216.318667,17.2235 216.890333,16.2026667 217.315,15.092 C217.739667,13.9813333 217.952,12.74 217.952,11.368 C217.952,10.2573333 217.772333,9.0895 217.413,7.8645 C217.053667,6.6395 216.441167,5.50433333 215.5755,4.459 C214.709833,3.41366667 213.574667,2.548 212.17,1.862 C210.765333,1.176 209.017667,0.833 206.927,0.833 C204.999667,0.833 203.309167,1.16783333 201.8555,1.8375 C200.401833,2.50716667 199.168667,3.43 198.156,4.606 C197.143333,5.782 196.383833,7.1785 195.8775,8.7955 C195.371167,10.4125 195.118,12.1683333 195.118,14.063 L195.118,14.063 L200.704,14.063 C200.736667,12.8543333 200.859167,11.7273333 201.0715,10.682 C201.283833,9.63666667 201.6105,8.73016667 202.0515,7.9625 C202.4925,7.19483333 203.0805,6.5905 203.8155,6.1495 C204.5505,5.7085 205.473333,5.488 206.584,5.488 C207.792667,5.488 208.772667,5.69216667 209.524,6.1005 C210.275333,6.50883333 210.863333,7.01516667 211.288,7.6195 C211.712667,8.22383333 211.9985,8.87716667 212.1455,9.5795 C212.2925,10.2818333 212.366,10.9433333 212.366,11.564 C212.333333,12.9033333 211.990333,14.0875 211.337,15.1165 C210.683667,16.1455 209.850667,17.101 208.838,17.983 C207.825333,18.865 206.714667,19.6898333 205.506,20.4575 C204.297333,21.2251667 203.137667,22.0173333 202.027,22.834 C199.707667,24.402 197.878333,26.2476667 196.539,28.371 C195.199667,30.4943333 194.513667,32.977 194.481,35.819 L194.481,35.819 L217.903,35.819 Z" id="2" fill="#222223"></path>
                    <path d="M238.434,36.652 C240.557333,36.652 242.501,36.309 244.265,35.623 C246.029,34.937 247.564333,33.9651667 248.871,32.7075 C250.177667,31.4498333 251.214833,29.9553333 251.9825,28.224 C252.750167,26.4926667 253.199333,24.5816667 253.33,22.491 L253.33,22.491 L247.352,22.491 C247.221333,23.765 246.943667,24.9573333 246.519,26.068 C246.094333,27.1786667 245.506333,28.1505 244.755,28.9835 C244.003667,29.8165 243.105333,30.4698333 242.06,30.9435 C241.014667,31.4171667 239.806,31.654 238.434,31.654 C236.572,31.654 234.963167,31.2783333 233.6075,30.527 C232.251833,29.7756667 231.149333,28.7711667 230.3,27.5135 C229.450667,26.2558333 228.821833,24.8266667 228.4135,23.226 C228.005167,21.6253333 227.801,19.992 227.801,18.326 C227.801,16.66 228.005167,15.0266667 228.4135,13.426 C228.821833,11.8253333 229.450667,10.3961667 230.3,9.1385 C231.149333,7.88083333 232.251833,6.87633333 233.6075,6.125 C234.963167,5.37366667 236.572,4.998 238.434,4.998 C239.708,4.998 240.826833,5.1695 241.7905,5.5125 C242.754167,5.8555 243.595333,6.33733333 244.314,6.958 C245.032667,7.57866667 245.620667,8.31366667 246.078,9.163 C246.535333,10.0123333 246.894667,10.9433333 247.156,11.956 L247.156,11.956 L253.281,11.956 C253.085,10.0613333 252.578667,8.379 251.762,6.909 C250.945333,5.439 249.8755,4.1895 248.5525,3.1605 C247.2295,2.1315 245.702333,1.3475 243.971,0.8085 C242.239667,0.2695 240.394,2.13162821e-14 238.434,2.13162821e-14 C235.820667,2.13162821e-14 233.476833,0.49 231.4025,1.47 C229.328167,2.45 227.572333,3.773 226.135,5.439 C224.697667,7.105 223.595167,9.04866667 222.8275,11.27 C222.059833,13.4913333 221.676,15.8433333 221.676,18.326 C221.676,20.8413333 222.059833,23.2096667 222.8275,25.431 C223.595167,27.6523333 224.697667,29.596 226.135,31.262 C227.572333,32.928 229.328167,34.2428333 231.4025,35.2065 C233.476833,36.1701667 235.820667,36.652 238.434,36.652 Z M273.812,36.652 C276.425333,36.652 278.769167,36.1701667 280.8435,35.2065 C282.917833,34.2428333 284.673667,32.928 286.111,31.262 C287.548333,29.596 288.650833,27.6523333 289.4185,25.431 C290.186167,23.2096667 290.57,20.8413333 290.57,18.326 C290.57,15.8433333 290.186167,13.4913333 289.4185,11.27 C288.650833,9.04866667 287.548333,7.105 286.111,5.439 C284.673667,3.773 282.917833,2.45 280.8435,1.47 C278.769167,0.49 276.425333,2.13162821e-14 273.812,2.13162821e-14 C271.198667,2.13162821e-14 268.854833,0.49 266.7805,1.47 C264.706167,2.45 262.950333,3.773 261.513,5.439 C260.075667,7.105 258.973167,9.04866667 258.2055,11.27 C257.437833,13.4913333 257.054,15.8433333 257.054,18.326 C257.054,20.8413333 257.437833,23.2096667 258.2055,25.431 C258.973167,27.6523333 260.075667,29.596 261.513,31.262 C262.950333,32.928 264.706167,34.2428333 266.7805,35.2065 C268.854833,36.1701667 271.198667,36.652 273.812,36.652 Z M273.812,31.654 C271.95,31.654 270.341167,31.2783333 268.9855,30.527 C267.629833,29.7756667 266.527333,28.7711667 265.678,27.5135 C264.828667,26.2558333 264.199833,24.8266667 263.7915,23.226 C263.383167,21.6253333 263.179,19.992 263.179,18.326 C263.179,16.66 263.383167,15.0266667 263.7915,13.426 C264.199833,11.8253333 264.828667,10.3961667 265.678,9.1385 C266.527333,7.88083333 267.629833,6.87633333 268.9855,6.125 C270.341167,5.37366667 271.95,4.998 273.812,4.998 C275.674,4.998 277.282833,5.37366667 278.6385,6.125 C279.994167,6.87633333 281.096667,7.88083333 281.946,9.1385 C282.795333,10.3961667 283.424167,11.8253333 283.8325,13.426 C284.240833,15.0266667 284.445,16.66 284.445,18.326 C284.445,19.992 284.240833,21.6253333 283.8325,23.226 C283.424167,24.8266667 282.795333,26.2558333 281.946,27.5135 C281.096667,28.7711667 279.994167,29.7756667 278.6385,30.527 C277.282833,31.2783333 275.674,31.654 273.812,31.654 Z M301.742,35.819 L301.742,10.094 L301.889,10.094 L317.814,35.819 L324.282,35.819 L324.282,0.833 L318.451,0.833 L318.451,26.607 L318.353,26.607 L302.379,0.833 L295.911,0.833 L295.911,35.819 L301.742,35.819 Z M337.12,35.819 L337.12,10.094 L337.267,10.094 L353.192,35.819 L359.66,35.819 L359.66,0.833 L353.829,0.833 L353.829,26.607 L353.731,26.607 L337.757,0.833 L331.289,0.833 L331.289,35.819 L337.12,35.819 Z M392.441,35.819 L392.441,30.527 L373.037,30.527 L373.037,20.286 L390.677,20.286 L390.677,15.288 L373.037,15.288 L373.037,6.125 L392.098,6.125 L392.098,0.833 L366.912,0.833 L366.912,35.819 L392.441,35.819 Z M412.678,36.652 C414.801333,36.652 416.745,36.309 418.509,35.623 C420.273,34.937 421.808333,33.9651667 423.115,32.7075 C424.421667,31.4498333 425.458833,29.9553333 426.2265,28.224 C426.994167,26.4926667 427.443333,24.5816667 427.574,22.491 L427.574,22.491 L421.596,22.491 C421.465333,23.765 421.187667,24.9573333 420.763,26.068 C420.338333,27.1786667 419.750333,28.1505 418.999,28.9835 C418.247667,29.8165 417.349333,30.4698333 416.304,30.9435 C415.258667,31.4171667 414.05,31.654 412.678,31.654 C410.816,31.654 409.207167,31.2783333 407.8515,30.527 C406.495833,29.7756667 405.393333,28.7711667 404.544,27.5135 C403.694667,26.2558333 403.065833,24.8266667 402.6575,23.226 C402.249167,21.6253333 402.045,19.992 402.045,18.326 C402.045,16.66 402.249167,15.0266667 402.6575,13.426 C403.065833,11.8253333 403.694667,10.3961667 404.544,9.1385 C405.393333,7.88083333 406.495833,6.87633333 407.8515,6.125 C409.207167,5.37366667 410.816,4.998 412.678,4.998 C413.952,4.998 415.070833,5.1695 416.0345,5.5125 C416.998167,5.8555 417.839333,6.33733333 418.558,6.958 C419.276667,7.57866667 419.864667,8.31366667 420.322,9.163 C420.779333,10.0123333 421.138667,10.9433333 421.4,11.956 L421.4,11.956 L427.525,11.956 C427.329,10.0613333 426.822667,8.379 426.006,6.909 C425.189333,5.439 424.1195,4.1895 422.7965,3.1605 C421.4735,2.1315 419.946333,1.3475 418.215,0.8085 C416.483667,0.2695 414.638,2.13162821e-14 412.678,2.13162821e-14 C410.064667,2.13162821e-14 407.720833,0.49 405.6465,1.47 C403.572167,2.45 401.816333,3.773 400.379,5.439 C398.941667,7.105 397.839167,9.04866667 397.0715,11.27 C396.303833,13.4913333 395.92,15.8433333 395.92,18.326 C395.92,20.8413333 396.303833,23.2096667 397.0715,25.431 C397.839167,27.6523333 398.941667,29.596 400.379,31.262 C401.816333,32.928 403.572167,34.2428333 405.6465,35.2065 C407.720833,36.1701667 410.064667,36.652 412.678,36.652 Z M447.027,35.819 L447.027,6.125 L458.15,6.125 L458.15,0.833 L429.828,0.833 L429.828,6.125 L440.902,6.125 L440.902,35.819 L447.027,35.819 Z" id="CONNECT" fill="#2A2A2A"></path>
                </g>
                <g id="logo-copy" transform="translate(44.430244, 41.497564) rotate(4.000000) translate(-44.430244, -41.497564) translate(2.930244, 2.997564)">
                    <circle id="Oval" stroke="url(#linearGradient-1)" stroke-width="5" fill="#222223" cx="44.0073078" cy="38.2092694" r="38"></circle>
                    <g id="Dots" transform="translate(24.000000, 9.000000)" fill="#">
                        <circle id="Oval-2" cx="5.5" cy="48.5" r="5.5"></circle>
                        <circle id="Oval-2" cx="7.5" cy="21.5" r="5.5"></circle>
                        <circle id="Oval-2" cx="26.5" cy="5.5" r="5.5"></circle>
                        <circle id="Oval-2" cx="20.5" cy="34.5" r="5.5"></circle>
                        <circle id="Oval-2" cx="25.5" cy="52.5" r="5.5"></circle>
                    </g>
                    <g id="Group-2-Copy" transform="translate(33.721212, 41.036334) rotate(-14.000000) translate(-33.721212, -41.036334) translate(7.221212, 11.536334)">
                        <path d="M26.658668,18.7575571 L45.5082226,3.11903951 C46.5664509,2.24108128 48.1618116,2.3572414 49.0715606,3.3784904 C49.0803385,3.3883441 49.5000165,3.88260271 50.3305947,4.86126622 C51.1997549,5.88564781 51.0631331,7.39218292 50.0228039,8.25529119 L31.1732492,23.8938088 C30.1150209,24.771767 28.5196602,24.6556069 27.6099112,23.6343579 C27.6011333,23.6245042 27.1814553,23.1302456 26.3508771,22.1515821 C25.481717,21.1272005 25.6183388,19.6206654 26.658668,18.7575571 Z" id="Rectangle" fill="#E25F54" transform="translate(38.340736, 13.506424) rotate(10.000000) translate(-38.340736, -13.506424) "></path>
                        <g id="2" transform="translate(29.000000, 36.000000) scale(-1, 1) translate(-29.000000, -36.000000) translate(14.000000, 15.000000)">
                            <path d="M22.5008744,3.193699 C22.5298474,3.22648946 22.5579546,3.26003493 22.5851669,3.29430073 L23.0817565,3.91960873 C23.9087106,4.9609133 23.7758307,6.46734403 22.7793605,7.3478072 L11.6105589,17.2160178 L23.8483807,30.1021047 C24.7635191,31.0657383 24.7648113,32.5769323 23.851322,33.5421295 L23.3404422,34.0819276 C22.3913624,35.08473 20.8090491,35.1282807 19.8062467,34.1792009 C19.7739714,34.1486546 19.7425162,34.1172532 19.7119148,34.0850301 L5.53864949,19.1606928 C5.28038956,18.8887472 5.09490989,18.5731928 4.9822315,18.2386082 C4.28623763,17.2077279 4.45290758,15.80447 5.40046018,14.9672295 L18.9720742,2.97559551 C20.0067531,2.06137185 21.5866507,2.15902011 22.5008744,3.193699 Z" id="Rectangle-Copy-5" fill="#FFD97C" transform="translate(14.545573, 18.606245) rotate(-16.000000) translate(-14.545573, -18.606245) "></path>
                            <path d="M26.6508379,36.697568 L6.07572575,36.1664799 C4.74723329,36.1321887 3.67774409,35.0645268 3.64118105,33.7360949 L3.62073273,32.9931535 C3.58274516,31.6129643 4.67081455,30.4633048 6.05100375,30.4253173 C6.09542535,30.4240946 6.13987164,30.4240566 6.18429526,30.4252033 L26.7594074,30.9562914 C28.0878998,30.9905826 29.157389,32.0582445 29.1939521,33.3866764 L29.2144004,34.1296179 C29.252388,35.5098071 28.1643186,36.6594665 26.7841294,36.6974541 C26.7397078,36.6986767 26.6952615,36.6987147 26.6508379,36.697568 Z" id="Rectangle-Copy-3" fill="#4BB6F5" transform="translate(16.417567, 33.561386) rotate(-26.000000) translate(-16.417567, -33.561386) "></path>
                        </g>
                    </g>
                </g>
            </g>
        </g>
    </g>
</svg>